<?xml version="1.0" encoding="utf-8"?>
<!-- Generator: Adobe Illustrator 26.2.1, SVG Export Plug-In . SVG Version: 6.00 Build 0)  -->
<svg version="1.1" id="Layer_1" xmlns="http://www.w3.org/2000/svg" xmlns:xlink="http://www.w3.org/1999/xlink" x="0px" y="0px"
	 viewBox="0 0 476.4 568.9" style="enable-background:new 0 0 476.4 568.9;" xml:space="preserve">
<style type="text/css">
	.st0{fill-rule:evenodd;clip-rule:evenodd;fill:#231F20;}
	.st1{fill-rule:evenodd;clip-rule:evenodd;fill:#FFFFFF;}
</style>
<g>
	<g>
		<polygon class="st0" points="476.4,568.6 476,0 0,0.3 0.4,568.9 		"/>
		<polygon class="st1" points="454,545.7 453.7,22.2 22.2,22.4 22.5,546 		"/>
		<path class="st0" d="M102.2,361.2c14.5-10,30.4-21.4,46.9-30.6c7.8-5.7-2.3-26.6-14.3-32.4c-7.6-3.3-9,0.2-17.6,14.4
			c-8.9,15.1-9.8,16.7-18.3,30.8c-5.3,7.4-7.4,13.7-5.6,17.9C94.8,363.9,99.6,363,102.2,361.2z"/>
		<path class="st0" d="M48.1,441.2c6.3,0.7,9.3-1.4,11-3.9c2.9-4.2,0-10.5-1.2-15.2c-11-18.4-19.3-47.7-19.3-47.7
			c0,16.5,0,41.4,0,62.1C40.5,440.7,43.4,441.2,48.1,441.2z"/>
		<path class="st0" d="M398.4,38.9c13.9,7.3,24.1,20.6,16.3,33.1c-3.2,3.3-8.6,5.2-14.3,6.8c-34.6,9.1-66.5,6.1-99.6,18
			c-13.8,4.3-23.1,18.9-30.4,33.3c-11.6,19.9-10.3,52.5-5.9,67.5c7.6,20.7,26.5,37.3,41.3,53c2.3,2.5,4.5,6.6,3.4,9.9
			c-1.3,4-5.9,5.8-9.2,3.4c-10.1-8.9-23.2-10.8-36.2-7.4c-10.1,4.3-17,7-25.6,7.3c-8.6-0.3-15.5-2.9-25.7-7.2
			c-13.1-3.3-26-1.7-36.2,7.5c-3.3,2.4-7.9,0.6-9.2-3.4c-1.1-3.3,1.1-7.4,3.4-9.9c14.8-15.7,33.7-32.3,41.2-53
			c4.4-15,5.6-47.6-6-67.5c-7.2-14.4-16.6-29-30.4-33.3c-33.1-11.9-65.1-8.8-99.6-17.9c-5.7-1.5-11.1-3.4-14.3-6.7
			c-7.9-12.4,2.4-25.8,16.2-33.1l-39.2,0l0.1,157.1c7.2-1.5,17.6,0.4,21.5,2.4c10.5,4,10.8,5,19.8,3.7c15.1-1.9,16.1-19.5,25.2-24.6
			c9.1-5.1,19.2-3,25,0c3.1,2.1,4.7,4.7,3.5,8.5c-1.7,4.6-8.9,14.3-20,18c-3.6,1.9-7.2,5.5-5.8,11.3c0.4,2.6,4.2,5.1,8.1,5.1
			c10.9,0.5,18.3-4.6,26.7-11.8c4.1-3.3,9.5-7.6,13.3-10.8c8.1-5.5,16.2-19.6,27.9-13.3c6.2,4.7-8.5,27.2-20.3,38.4
			c-14.2,10.8-25.5,24-23.5,43.1c4.9,14.9,10,16.4,17.4,20.7c10.5,3.9,17.4,5.3,29.3,3.2c10.9-1.1,11.4-9.5,17-13.5
			c3.9-3.3,8-2.6,13.5-2c9.3,1,9.6,7.9,12.1,10.9c3.9,4.7,6.9,3.6,6.9,3.6s1.6,0,1.6,0l3.5-0.1c-0.1,0,1.9,1.2,5.7-3.5
			c2.4-3,2.8-9.9,12.1-10.9c5.5-0.6,10-1.3,13.5,2c5.7,4,6.9,12.1,17.1,13.5c11.9,2,18.8,0.6,29.3-3.3c7.4-4.3,12.6-5.8,17.4-20.7
			c2-19-9.3-32.3-23.5-43.1c-11.8-11.1-26.5-33.7-20.4-38.4c11.6-6.4,19.8,7.7,27.9,13.2c3.7,3.4,9.3,7.5,13.4,10.8
			c8.4,7.2,15.9,12.2,26.7,11.7c3.9-0.1,7.7-2.5,8.1-5.1c1.5-5.8-2.2-9.4-5.8-11.3c-11.1-3.6-18.3-13.4-20-17.9
			c-1.2-3.9,0.4-6.4,3.5-8.6c5.8-3,15.9-5.1,25,0c9.1,5.1,10.2,22.6,25.3,24.6c8.9,1.3,9.3,0.3,19.8-3.7c4-2,14.8-4.1,21.5-2.4
			l-0.1-157.1L398.4,38.9z M158.1,156.1c-13.7,16.1-53.5,14.6-56.9,11.4c-3.6-1.9-4.6-6.4-3.8-10.9c1.4-5.1,5.8-8.4,10.6-5.5
			c4.3,5.8,8,7.8,13.4,8.8c16.7,3.4,18.2-31.4,37-9.3C158.3,150.6,159.9,153.7,158.1,156.1z M376.8,167.3c-3.4,3.3-45,4.7-58.7-11.4
			c-1.7-2.4-0.2-5.5-0.2-5.5c21.9-20.3,20.3,12.7,37,9.3c5.4-1,9.1-3,13.4-8.8c4.8-3,9.2,0.3,10.6,5.5
			C379.6,160.9,380.4,165.5,376.8,167.3z"/>
		<path class="st0" d="M374.4,361c-14.5-10-30.5-21.3-47-30.5c-7.8-5.6,3.7-26,14.2-32.5c7.7-3.3,10.7,2.1,14.7,9.6
			c8.9,15.1,12.9,21.4,21.4,35.5c5.2,7.3,7.4,13.7,5.6,17.9C381.4,363.9,376.9,362.8,374.4,361z"/>
		<path class="st0" d="M344.9,371.3c-16-9.5-29.4-9.1-48.8-21.1c-12-6.4-30.9-8.3-41.6-1.9c-10.7,4.4-7.2,3.6-16.1,4.3l0,0
			c0,0-0.1,0-0.1,0l0,0c0,0,0,0,0,0c0,0,0,0-0.1,0l0,0c-8.5-0.8-5.7-0.4-16.8-4.3c-10.7-6.3-29-4.4-41,2
			c-18.3,12-33.7,11.4-48.8,21.2c-6.6,3.5-4.6,9.8,2.6,14.2c15.7,10.2,25.9,16.5,45.6,23.7c10,3.9,14.9,5.4,24,9
			c11.7,5.3,20.7,15,21.2,16.3c1.8,5,9.8,4.2,13.8,4.3c0,0,1.2,0,1.3,0c0,0,9.6,0.7,11.4-4.3c0.6-1.6,9.5-11,21.2-16.4
			c9-3.6,13.9-5.1,23.9-9c19.7-7.2,29.9-13.5,45.6-23.7C349.4,381.1,351.5,374.8,344.9,371.3z M268.8,401.5c-11.9,5-21,8.1-30.5,8.6
			c-9.5-0.5-18.6-3.6-30.5-8.6c-11.5-4.2-31.2-17.9-31.1-22.9c0-4.9,18.4-5.1,29.5-5.1c6,0.3,14.7,4.3,18,9.5
			c3.5,4.1,3.3,8.4,14,9.2l0,0c0,0,0.1,0,0.1,0c0,0,0,0,0.1,0l0,0c10.7-0.9,10.5-5.1,14-9.2c3.3-5.2,12-9.2,18-9.5
			c11.2,0,29.6,0.2,29.6,5.1C299.9,383.5,280.3,397.3,268.8,401.5z"/>
		<path class="st0" d="M428.5,441c-6.3,0.7-9.3-1.4-11-3.8c-2.9-4.2,0-10.5,1.1-15.2c9.4-15.2,19.2-47.8,19.2-47.8
			c0,16.5,0,41.4,0,62.1C436.2,440.4,433.2,441,428.5,441z"/>
		<path class="st0" d="M429.2,474.1c-9.6,10.5-16.7,21.2-36,27.9c-10.1,3.3-14.8,1.9-20.9-2.7c-4.7-3.4-5.4-7.2-4.4-12
			c1-3.3,2.8-6.6,4.7-9.5c4-7.1,11.6-15,11.6-18c0.3-6-5.2-9.1-9.3-6.9c-13.9,4.7-15.9,15.3-37.4,16.1c-4.4-0.3-7,2.2-7.8,5.8
			c-2.5,15.7-18.2,30.6-23.8,34.2c-13.9,8.5-43.8,14.6-67.3,14.7c0,0,0,0,0,0c-0.1,0-0.1,0-0.1,0c0,0,0,0,0,0
			c-23.5,0-53.4-6-67.3-14.6c-5.6-3.6-21.3-18.5-23.9-34.2c-0.9-3.6-3.5-6.1-7.8-5.8c-21.8-1.4-23.5-11.3-37.5-16
			c-4.1-2.2-9.5,0.9-9.2,6.9c0,3,7.6,10.9,11.6,18c1.9,2.9,3.6,6.3,4.7,9.5c1,4.8,0.3,8.5-4.4,12c-6.1,4.7-10.8,6.1-20.9,2.8
			c-18.9-7.3-26.4-17.4-36-27.8c-2.7-2.5-3.4-6-8.8-11.3l0.1,66l199.4-0.1l0.1,0l199.4-0.1l0-66
			C432.5,468.1,431.9,471.7,429.2,474.1z"/>
	</g>
</g>
</svg>
